<?xml version="1.0" encoding="UTF-8"?>
<svg width="24px" height="43px" viewBox="0 0 24 43" version="1.1" xmlns="http://www.w3.org/2000/svg" xmlns:xlink="http://www.w3.org/1999/xlink">
    <!-- Generator: Sketch 42 (36781) - http://www.bohemiancoding.com/sketch -->
    <title>Artboard 2</title>
    <desc>Created with Sketch.</desc>
    <defs></defs>
    <g id="Page-1" stroke="none" stroke-width="1" fill="none" fill-rule="evenodd">
        <g id="Artboard-2" fill="#00DAEE">
            <path d="M21.8181818,5.51282051 L2.18181818,5.51282051 L2.18181818,3.30769231 C2.18181818,2.71230769 2.68363636,2.20512821 3.27272727,2.20512821 L20.7272727,2.20512821 C21.3163636,2.20512821 21.8181818,2.71230769 21.8181818,3.30769231 L21.8181818,5.51282051 Z M2.18181818,35.2820513 L21.8181818,35.2820513 L21.8181818,7.71794872 L2.18181818,7.71794872 L2.18181818,35.2820513 Z M21.8181818,39.6923077 C21.8181818,40.2876923 21.3163636,40.7948718 20.7272727,40.7948718 L3.27272727,40.7948718 C2.68363636,40.7948718 2.18181818,40.2876923 2.18181818,39.6923077 L2.18181818,37.4871795 L21.8181818,37.4871795 L21.8181818,39.6923077 Z M20.7272727,0 L3.27272727,0 C1.47272727,0 0,1.48846154 0,3.30769231 L0,39.6923077 C0,41.5115385 1.47272727,43 3.27272727,43 L20.7272727,43 C22.5272727,43 24,41.5115385 24,39.6923077 L24,3.30769231 C24,1.48846154 22.5272727,0 20.7272727,0 L20.7272727,0 Z" id="Page-1"></path>
        </g>
    </g>
</svg>