<?xml version="1.0" encoding="UTF-8"?>
<svg width="41px" height="28px" viewBox="0 0 41 28" version="1.1" xmlns="http://www.w3.org/2000/svg" xmlns:xlink="http://www.w3.org/1999/xlink">
    <!-- Generator: Sketch 42 (36781) - http://www.bohemiancoding.com/sketch -->
    <title>Page 1</title>
    <desc>Created with Sketch.</desc>
    <defs></defs>
    <g id="Page-1" stroke="none" stroke-width="1" fill="none" fill-rule="evenodd">
        <g id="Artboard-3" fill="#00DAEE">
            <g id="Page-1">
                <path d="M38.95,24.4813333 L28.612875,14.012963 L38.95,3.54511111 L38.95,24.4813333 Z M3.520875,25.9243704 L13.8375,15.4819259 L19.777375,21.4920741 C20.1807125,21.9001481 20.8192875,21.9001481 21.222625,21.4920741 L27.1625,15.4819259 L37.479125,25.9243704 L3.520875,25.9243704 Z M2.05,3.54511111 L12.387125,14.012963 L2.05,24.4813333 L2.05,3.54511111 Z M37.499625,2.07614815 L20.5,19.2914815 L3.500375,2.07614815 L37.499625,2.07614815 Z M39.975,0 L1.025,0 C0.46125,0 0,0.467185185 0,1.03807407 L0,26.9619259 C0,27.5385185 0.46125,28 1.025,28 L39.975,28 C40.53875,28 41,27.5385185 41,26.9619259 L41,1.03807407 C41,0.467185185 40.53875,0 39.975,0 L39.975,0 Z" id="Fill-1"></path>
            </g>
        </g>
    </g>
</svg>