<?xml version="1.0" encoding="UTF-8"?>
<svg width="31px" height="46px" viewBox="0 0 31 46" version="1.1" xmlns="http://www.w3.org/2000/svg" xmlns:xlink="http://www.w3.org/1999/xlink">
    <!-- Generator: Sketch 42 (36781) - http://www.bohemiancoding.com/sketch -->
    <title>Page 1</title>
    <desc>Created with Sketch.</desc>
    <defs></defs>
    <g id="Page-1" stroke="none" stroke-width="1" fill="none" fill-rule="evenodd">
        <g id="Artboard-4" fill="#00DAEE">
            <g id="Page-1">
                <path d="M15.5000554,21.9047619 C11.8354125,21.9047619 8.85719821,18.9585714 8.85719821,15.3333333 C8.85719821,11.7080952 11.8354125,8.76190476 15.5000554,8.76190476 C19.1646982,8.76190476 22.1429125,11.7080952 22.1429125,15.3333333 C22.1429125,18.9585714 19.1646982,21.9047619 15.5000554,21.9047619 M15.5000554,6.57142857 C10.6064839,6.57142857 6.6429125,10.492381 6.6429125,15.3333333 C6.6429125,20.1742857 10.6064839,24.0952381 15.5000554,24.0952381 C20.3936268,24.0952381 24.3571982,20.1742857 24.3571982,15.3333333 C24.3571982,10.492381 20.3936268,6.57142857 15.5000554,6.57142857 M15.5000554,43.4097619 C12.6325554,40.6771429 2.21434107,29.7357143 2.21434107,15.152619 C2.21434107,8.00619048 8.17630536,2.19047619 15.5000554,2.19047619 C22.8238054,2.19047619 28.7857696,8.00619048 28.7857696,15.152619 C28.7802339,29.7138095 18.3675554,40.6716667 15.5000554,43.4097619 M15.5000554,0 C6.9529125,0 5.53571429e-05,6.79595238 5.53571429e-05,15.152619 C5.53571429e-05,32.977619 14.1770196,45.222381 14.7804125,45.7371429 C15.1900554,46.087619 15.8100554,46.087619 16.2196982,45.7371429 C16.8230911,45.222381 30.9945196,32.977619 31.0000554,15.152619 C31.0000554,6.79595238 24.0471982,0 15.5000554,0" id="Fill-1"></path>
            </g>
        </g>
    </g>
</svg>