<?xml version="1.0" encoding="UTF-8"?>
<svg width="80px" height="80px" viewBox="0 0 80 80" version="1.1" xmlns="http://www.w3.org/2000/svg" xmlns:xlink="http://www.w3.org/1999/xlink">
    <!-- Generator: Sketch 42 (36781) - http://www.bohemiancoding.com/sketch -->
    <title>Artboard Copy 3</title>
    <desc>Created with Sketch.</desc>
    <defs></defs>
    <g id="Page-1" stroke="none" stroke-width="1" fill="none" fill-rule="evenodd">
        <g id="Artboard-Copy-3" fill="#00DAEE">
            <g id="Page-1">
                <path d="M68.5,77 C63.813,77 60,73.187 60,68.5 C60,63.813 63.813,60 68.5,60 C73.187,60 77,63.813 77,68.5 C77,73.187 73.187,77 68.5,77 M68.5,57 C65.912,57 63.529,57.87 61.605,59.318 L55.682,53.395 C55.096,52.809 54.146,52.809 53.561,53.395 C52.975,53.98 52.975,54.93 53.561,55.516 L59.46,61.415 C57.925,63.37 57,65.827 57,68.5 C57,74.841 62.159,80 68.5,80 C74.841,80 80,74.841 80,68.5 C80,62.159 74.841,57 68.5,57" id="Fill-1"></path>
                <path d="M11.5,20 C6.813,20 3,16.187 3,11.5 C3,6.813 6.813,3 11.5,3 C16.187,3 20,6.813 20,11.5 C20,16.187 16.187,20 11.5,20 L11.5,20 Z M20.727,18.439 C20.711,18.424 20.69,18.419 20.674,18.405 C22.127,16.479 23,14.092 23,11.5 C23,5.159 17.841,0 11.5,0 C5.159,0 0,5.159 0,11.5 C0,17.841 5.159,23 11.5,23 C14.175,23 16.634,22.074 18.589,20.536 C18.596,20.544 18.598,20.553 18.605,20.561 L24.605,26.561 C24.898,26.854 25.282,27 25.666,27 C26.05,27 26.434,26.854 26.727,26.561 C27.313,25.975 27.313,25.025 26.727,24.439 L20.727,18.439 Z" id="Fill-3"></path>
                <path d="M68.5,3 C73.187,3 77,6.813 77,11.5 C77,16.187 73.187,20 68.5,20 C63.813,20 60,16.187 60,11.5 C60,6.813 63.813,3 68.5,3 M54.998,26.833 C55.382,26.833 55.766,26.687 56.059,26.394 L61.7,20.753 C63.607,22.158 65.954,23 68.5,23 C74.841,23 80,17.841 80,11.5 C80,5.159 74.841,0 68.5,0 C62.159,0 57,5.159 57,11.5 C57,14.215 57.951,16.71 59.531,18.679 L53.937,24.272 C53.352,24.858 53.352,25.808 53.937,26.394 C54.23,26.687 54.614,26.833 54.998,26.833" id="Fill-5"></path>
                <path d="M11.5,77 C6.813,77 3,73.187 3,68.5 C3,63.813 6.813,60 11.5,60 C16.187,60 20,63.813 20,68.5 C20,73.187 16.187,77 11.5,77 M24.484,53.728 L18.68,59.532 C16.711,57.952 14.216,57 11.5,57 C5.159,57 0,62.159 0,68.5 C0,74.841 5.159,80 11.5,80 C17.841,80 23,74.841 23,68.5 C23,65.955 22.159,63.608 20.753,61.701 L26.605,55.849 C27.191,55.263 27.191,54.313 26.605,53.728 C26.02,53.142 25.07,53.142 24.484,53.728" id="Fill-7"></path>
                <path d="M40.9614,52.7761 L40.9614,41.6511 C44.4544,42.0111 47.1644,44.3651 47.1644,47.2131 C47.1644,50.0611 44.4544,52.4161 40.9614,52.7761 L40.9614,52.7761 Z M38.1314,38.5551 C35.1324,37.8921 32.9234,35.7251 32.9234,33.1551 C32.9234,30.5831 35.1324,28.4161 38.1314,27.7531 L38.1314,38.5551 Z M40.9604,38.8081 L40.9604,27.5891 C43.2724,27.8221 45.3064,28.9311 46.4014,30.6051 C46.8294,31.2601 47.7104,31.4421 48.3604,31.0151 C49.0154,30.5871 49.1984,29.7101 48.7704,29.0561 C47.1644,26.6011 44.2254,25.0151 40.9604,24.7621 L40.9604,19.4591 C40.9604,18.6781 40.3264,18.0441 39.5454,18.0441 C38.7644,18.0441 38.1304,18.6781 38.1304,19.4591 L38.1304,24.8701 C33.5554,25.6321 30.0934,29.0561 30.0934,33.1551 C30.0934,37.2531 33.5564,40.6751 38.1304,41.4371 L38.1304,52.6231 C36.2394,52.2101 34.6214,51.1921 33.6884,49.7611 C33.2604,49.1091 32.3844,48.9241 31.7284,49.3501 C31.0744,49.7781 30.8904,50.6551 31.3174,51.3091 C32.7564,53.5131 35.2724,55.0131 38.1304,55.4851 L38.1304,60.9081 C38.1304,61.6891 38.7644,62.3231 39.5454,62.3231 C40.3264,62.3231 40.9604,61.6891 40.9604,60.9081 L40.9604,55.6191 C46.0194,55.2211 49.9934,51.6051 49.9934,47.2141 C49.9934,42.8231 46.0194,39.2071 40.9604,38.8081 L40.9604,38.8081 Z" id="Fill-9"></path>
            </g>
        </g>
    </g>
</svg>