<?xml version="1.0" encoding="UTF-8"?>
<svg width="75px" height="80px" viewBox="0 0 75 80" version="1.1" xmlns="http://www.w3.org/2000/svg" xmlns:xlink="http://www.w3.org/1999/xlink">
    <!-- Generator: Sketch 42 (36781) - http://www.bohemiancoding.com/sketch -->
    <title>Artboard</title>
    <desc>Created with Sketch.</desc>
    <defs></defs>
    <g id="Page-1" stroke="none" stroke-width="1" fill="none" fill-rule="evenodd">
        <g id="Artboard" fill="#00DAEE">
            <g id="Page-1">
                <path d="M12.754,27.2503 L8.754,27.2503 C7.926,27.2503 7.254,26.5783 7.254,25.7503 C7.254,24.9223 7.926,24.2503 8.754,24.2503 L64.754,24.2503 C65.582,24.2503 66.254,24.9223 66.254,25.7503 C66.254,26.5783 65.582,27.2503 64.754,27.2503 L60.754,27.2503 L60.754,66.2503 L64.754,66.2503 C65.582,66.2503 66.254,66.9223 66.254,67.7503 C66.254,68.5783 65.582,69.2503 64.754,69.2503 L8.754,69.2503 C7.926,69.2503 7.254,68.5783 7.254,67.7503 C7.254,66.9223 7.926,66.2503 8.754,66.2503 L12.754,66.2503 L12.754,27.2503 Z M15.754,27.2503 L15.754,66.2503 L27.754,66.2503 L27.754,27.2503 L15.754,27.2503 Z M30.754,27.2503 L30.754,66.2503 L42.754,66.2503 L42.754,27.2503 L30.754,27.2503 Z M45.754,27.2503 L45.754,66.2503 L57.754,66.2503 L57.754,27.2503 L45.754,27.2503 Z M37.2537922,0.0202137513 C36.92251,-0.0348562815 36.5709294,0.0204181956 36.2581,0.2013 L0.7501,20.7013 C0.0321,21.1153 -0.2129,22.0323 0.2011,22.7503 C0.4791,23.2313 0.9831,23.5003 1.5011,23.5003 C1.7561,23.5003 2.0141,23.4363 2.2501,23.2993 L37.254,3.09033441 L72.2579,23.2993 C72.4939,23.4363 72.7519,23.5003 73.0069,23.5003 C73.5249,23.5003 74.0289,23.2313 74.3069,22.7503 C74.7209,22.0323 74.4759,21.1153 73.7579,20.7013 L38.2499,0.2013 C37.9366337,0.0204181956 37.584998,-0.0348562815 37.2537922,0.0202137513 Z M72.754,79.2503 L1.754,79.2503 C0.926,79.2503 0.254,78.5783 0.254,77.7503 C0.254,76.9223 0.926,76.2503 1.754,76.2503 L72.754,76.2503 C73.582,76.2503 74.254,76.9223 74.254,77.7503 C74.254,78.5783 73.582,79.2503 72.754,79.2503 Z" id="Combined-Shape"></path>
            </g>
        </g>
    </g>
</svg>