<?xml version="1.0" encoding="UTF-8"?>
<svg width="45px" height="86px" viewBox="0 0 45 86" version="1.1" xmlns="http://www.w3.org/2000/svg" xmlns:xlink="http://www.w3.org/1999/xlink">
    <!-- Generator: Sketch 42 (36781) - http://www.bohemiancoding.com/sketch -->
    <title>Artboard Copy</title>
    <desc>Created with Sketch.</desc>
    <defs></defs>
    <g id="Page-1" stroke="none" stroke-width="1" fill="none" fill-rule="evenodd">
        <g id="Artboard-Copy" fill="#00DAEE">
            <g id="Page-1">
                <path d="M20,76 L13,76 L13,83.834 C13,84.662 12.328,85.334 11.5,85.334 C10.672,85.334 10,84.662 10,83.834 L10,76 L2,76 C1.74108896,76 1.49743126,75.9342933 1.28480339,75.8186563 C0.558634262,75.7141868 0,75.0889349 0,74.334 L0,12 C0,11.970906 0.000829689732,11.9420046 0.00246668357,11.9133182 C0.00109458967,11.8870184 0.000400000001,11.8605399 0.000400000001,11.8339 C0.000400000001,11.0059 0.6714,10.3339 1.5004,10.3339 L10,10.3339 L10,1.5 C10,0.672 10.672,0 11.5,0 C12.328,0 13,0.672 13,1.5 L13,10.3339 L20,10.3339 L20,1.5 C20,0.672 20.672,0 21.5,0 C22.328,0 23,0.672 23,1.5 L23,10.3764365 C31.1875445,10.9755869 37.6674,17.8292161 37.6674,26.1669 C37.6674,31.076124 35.4254364,35.5987099 31.658644,38.5720638 C39.3875513,41.0435767 45,48.2962188 45,56.834 C45,67.402 36.401,76 25.833,76 L23,76 L23,83.834 C23,84.662 22.328,85.334 21.5,85.334 C20.672,85.334 20,84.662 20,83.834 L20,76 Z M3,13.3339 L3,37.667 L25.833,37.667 C26.3655298,37.667 26.8930598,37.6888348 27.4147417,37.7316562 C27.4709998,37.6925377 27.5305996,37.6568108 27.5934,37.6249 C31.9574,35.4129 34.6674,31.0229 34.6674,26.1669 C34.6674,19.0909 28.9104,13.3339 21.8334,13.3339 L3,13.3339 Z M3,73 L25.833,73 C34.747,73 42,65.748 42,56.834 C42,47.92 34.747,40.667 25.833,40.667 L3,40.667 L3,73 Z" id="Combined-Shape"></path>
            </g>
        </g>
    </g>
</svg>