<?xml version="1.0" encoding="UTF-8"?>
<svg width="324px" height="49px" viewBox="0 0 324 49" version="1.1" xmlns="http://www.w3.org/2000/svg" xmlns:xlink="http://www.w3.org/1999/xlink">
    <!-- Generator: Sketch 42 (36781) - http://www.bohemiancoding.com/sketch -->
    <title>Artboard 5</title>
    <desc>Created with Sketch.</desc>
    <defs>
        <polygon id="path-1" points="0.6967 0 48.4237 0 48.4237 48.9998 0.6967 48.9998 0.6967 7.10542736e-15"></polygon>
        <polygon id="path-3" points="35 0.1353 35 48.8643 0.1542 48.8643 0.1542 0.1353"></polygon>
    </defs>
    <g id="Page-1" stroke="none" stroke-width="1" fill="none" fill-rule="evenodd">
        <g id="Artboard-5">
            <g id="Page-1">
                <polygon id="Fill-1" fill="#FEFEFE" points="59.7969 0.8122 59.7969 48.1882 93.8969 48.1882 93.8969 44.9392 63.3219 44.9392 63.3219 25.9212 90.5079 25.9212 90.5079 22.6732 63.3219 22.6732 63.3219 4.0612 93.5589 4.0612 93.5589 0.8122"></polygon>
                <g id="Group-18">
                    <path d="M108.9507,41.2843 L111.2557,38.6453 C116.4757,43.4503 121.2897,45.6843 128.2717,45.6843 C135.3907,45.6843 140.2717,41.6903 140.2717,36.1413 C140.2717,31.1323 137.6277,28.2223 126.8487,26.0563 C115.4587,23.7553 110.8487,19.8983 110.8487,12.5883 C110.8487,5.5493 117.2897,0.1353 126.1027,0.1353 C133.0177,0.1353 137.5607,2.0303 142.3737,5.8883 L140.1357,8.6633 C135.6617,4.8053 131.1877,3.3163 125.9677,3.3163 C118.9837,3.3163 114.3747,7.3093 114.3747,12.3853 C114.3747,17.3933 116.9507,20.4393 128.2037,22.7403 C139.1877,24.9733 143.7967,28.8993 143.7967,35.9383 C143.7967,43.5853 137.2217,48.8643 128.0687,48.8643 C120.4757,48.8643 114.6447,46.3603 108.9507,41.2843" id="Fill-2" fill="#FEFEFE"></path>
                    <polygon id="Fill-4" fill="#FEFEFE" points="162.1707 0.8121 165.4927 0.8121 184.5427 28.8311 203.5937 0.8121 206.9157 0.8121 206.9157 48.1881 203.3897 48.1881 203.3897 7.0391 184.6107 34.3141 184.3387 34.3141 165.5597 7.0391 165.5597 48.1881 162.1707 48.1881"></polygon>
                    <g id="Group-8" transform="translate(225.000000, 0.000000)">
                        <mask id="mask-2" fill="white">
                            <use xlink:href="#path-1"></use>
                        </mask>
                        <g id="Clip-7"></g>
                        <path d="M44.7627,24.4998 C44.7627,12.7918 36.2207,3.1808 24.4917,3.1808 C12.7637,3.1808 4.3567,12.6558 4.3567,24.4998 C4.3567,36.2088 12.8987,45.8188 24.6277,45.8188 C36.3557,45.8188 44.7627,36.3438 44.7627,24.4998 M0.6967,24.4998 C0.6967,11.5738 10.2557,-0.0002 24.6277,-0.0002 C39.0007,-0.0002 48.4237,11.4378 48.4237,24.4998 C48.4237,37.4268 38.8637,48.9998 24.4917,48.9998 C10.1197,48.9998 0.6967,37.5628 0.6967,24.4998" id="Fill-6" fill="#FEFEFE" mask="url(#mask-2)"></path>
                    </g>
                    <g id="Group-11" transform="translate(289.000000, 0.000000)">
                        <mask id="mask-4" fill="white">
                            <use xlink:href="#path-3"></use>
                        </mask>
                        <g id="Clip-10"></g>
                        <path d="M0.1542,41.2843 L2.4592,38.6453 C7.6792,43.4503 12.4932,45.6843 19.4752,45.6843 C26.5942,45.6843 31.4752,41.6903 31.4752,36.1413 C31.4752,31.1323 28.8312,28.2223 18.0522,26.0563 C6.6622,23.7553 2.0522,19.8983 2.0522,12.5883 C2.0522,5.5493 8.4932,0.1353 17.3062,0.1353 C24.2212,0.1353 28.7642,2.0303 33.5772,5.8883 L31.3392,8.6633 C26.8652,4.8053 22.3912,3.3163 17.1712,3.3163 C10.1872,3.3163 5.5782,7.3093 5.5782,12.3853 C5.5782,17.3933 8.1542,20.4393 19.4072,22.7403 C30.3912,24.9733 35.0002,28.8993 35.0002,35.9383 C35.0002,43.5853 28.4242,48.8643 19.2722,48.8643 C11.6792,48.8643 5.8482,46.3603 0.1542,41.2843" id="Fill-9" fill="#FEFEFE" mask="url(#mask-4)"></path>
                    </g>
                    <path d="M15.7967,0.8121 L0.0007,0.8121 L0.0007,4.0581 L9.9167,4.0581 L9.9167,4.0611 L15.7967,4.0611 C29.0167,4.0611 37.3547,13.2651 37.3547,24.5001 C37.3547,35.9381 29.0167,44.9391 15.7967,44.9391 L9.9167,44.9391 L9.9167,45.0001 L0.0007,45.0001 L0.0007,48.1881 L15.7967,48.1881 C30.7117,48.1881 41.0157,37.8331 41.0157,24.5001 C41.0157,11.0321 30.7117,0.8121 15.7967,0.8121" id="Fill-12" fill="#FEFEFE"></path>
                    <path d="M16.875,41.3332 L0,41.3332 L0,37.8332 L16.875,37.8332 C24.204,37.8332 30.167,31.8712 30.167,24.5412 C30.167,17.2122 24.204,11.2502 16.875,11.2502 L0,11.2502 L0,7.7502 L16.875,7.7502 C26.134,7.7502 33.667,15.2832 33.667,24.5412 C33.667,33.8002 26.134,41.3332 16.875,41.3332" id="Fill-14" fill="#FEFEFE"></path>
                    <path d="M16.625,30.5002 L3.5,30.5002 L3.5,18.5832 L16.625,18.5832 C19.911,18.5832 22.584,21.2562 22.584,24.5422 C22.584,27.8272 19.911,30.5002 16.625,30.5002 M16.625,15.0832 L0,15.0832 L0,16.9892 L0,18.5832 L0,30.5002 L0,33.9892 L0,34.0002 L16.625,34.0002 C21.841,34.0002 26.084,29.7572 26.084,24.5422 C26.084,19.3262 21.841,15.0832 16.625,15.0832" id="Fill-16" fill="#FEFEFE"></path>
                </g>
            </g>
        </g>
    </g>
</svg>